<svg width="313" height="102" viewBox="0 0 313 102" fill="none" xmlns="http://www.w3.org/2000/svg">
<path d="M103.42 19C103.286 19 103.18 18.96 103.1 18.88C103.02 18.8 102.98 18.6933 102.98 18.56V5.46C102.98 5.31333 103.02 5.2 103.1 5.12C103.18 5.04 103.286 5 103.42 5H108.28C109.213 5 110.02 5.16 110.7 5.48C111.393 5.78667 111.926 6.24667 112.3 6.86C112.686 7.47333 112.88 8.23333 112.88 9.14C112.88 10.0467 112.686 10.8067 112.3 11.42C111.926 12.0333 111.393 12.5 110.7 12.82C110.02 13.1267 109.213 13.28 108.28 13.28H104.24V18.56C104.24 18.6933 104.2 18.8 104.12 18.88C104.04 18.96 103.926 19 103.78 19H103.42ZM104.24 12.08H108.18C109.34 12.08 110.2 11.8267 110.76 11.32C111.333 10.8133 111.62 10.0867 111.62 9.14C111.62 8.19333 111.333 7.46667 110.76 6.96C110.2 6.45333 109.34 6.2 108.18 6.2H104.24V12.08ZM119.101 19.2C118.141 19.2 117.335 19 116.681 18.6C116.041 18.2 115.548 17.6533 115.201 16.96C114.868 16.2667 114.688 15.4933 114.661 14.64C114.648 14.44 114.641 14.16 114.641 13.8C114.641 13.44 114.648 13.16 114.661 12.96C114.688 12.0933 114.868 11.32 115.201 10.64C115.548 9.94667 116.041 9.4 116.681 9C117.335 8.6 118.141 8.4 119.101 8.4C120.061 8.4 120.861 8.6 121.501 9C122.155 9.4 122.648 9.94667 122.981 10.64C123.328 11.32 123.515 12.0933 123.541 12.96C123.555 13.16 123.561 13.44 123.561 13.8C123.561 14.16 123.555 14.44 123.541 14.64C123.515 15.4933 123.328 16.2667 122.981 16.96C122.648 17.6533 122.155 18.2 121.501 18.6C120.861 19 120.061 19.2 119.101 19.2ZM119.101 18.04C120.035 18.04 120.795 17.74 121.381 17.14C121.968 16.54 122.281 15.6733 122.321 14.54C122.335 14.34 122.341 14.0933 122.341 13.8C122.341 13.5067 122.335 13.26 122.321 13.06C122.281 11.9133 121.968 11.0467 121.381 10.46C120.795 9.86 120.035 9.56 119.101 9.56C118.168 9.56 117.408 9.86 116.821 10.46C116.235 11.0467 115.921 11.9133 115.881 13.06C115.868 13.26 115.861 13.5067 115.861 13.8C115.861 14.0933 115.868 14.34 115.881 14.54C115.921 15.6733 116.235 16.54 116.821 17.14C117.408 17.74 118.168 18.04 119.101 18.04ZM128.74 19C128.567 19 128.433 18.96 128.34 18.88C128.247 18.8 128.167 18.6733 128.1 18.5L125.28 9.22C125.253 9.14 125.24 9.06667 125.24 9C125.24 8.89333 125.28 8.8 125.36 8.72C125.44 8.64 125.533 8.6 125.64 8.6H126.02C126.153 8.6 126.253 8.64 126.32 8.72C126.4 8.78667 126.447 8.84667 126.46 8.9L128.92 17.22L131.54 9C131.567 8.92 131.62 8.83333 131.7 8.74C131.78 8.64667 131.907 8.6 132.08 8.6H132.48C132.653 8.6 132.78 8.64667 132.86 8.74C132.953 8.83333 133.007 8.92 133.02 9L135.64 17.22L138.1 8.9C138.113 8.84667 138.153 8.78667 138.22 8.72C138.3 8.64 138.407 8.6 138.54 8.6H138.92C139.027 8.6 139.12 8.64 139.2 8.72C139.28 8.8 139.32 8.89333 139.32 9C139.32 9.06667 139.307 9.14 139.28 9.22L136.46 18.5C136.407 18.6733 136.333 18.8 136.24 18.88C136.147 18.96 136.007 19 135.82 19H135.48C135.307 19 135.16 18.96 135.04 18.88C134.933 18.8 134.853 18.6733 134.8 18.5L132.28 10.62L129.76 18.5C129.707 18.6733 129.627 18.8 129.52 18.88C129.413 18.96 129.267 19 129.08 19H128.74ZM145.369 19.2C144.075 19.2 143.049 18.78 142.289 17.94C141.529 17.0867 141.095 15.9733 140.989 14.6C140.975 14.4 140.969 14.1333 140.969 13.8C140.969 13.4667 140.975 13.2 140.989 13C141.055 12.0933 141.269 11.2933 141.629 10.6C141.989 9.90667 142.482 9.36667 143.109 8.98C143.749 8.59333 144.502 8.4 145.369 8.4C146.302 8.4 147.095 8.60667 147.749 9.02C148.402 9.43333 148.902 10.0267 149.249 10.8C149.609 11.5733 149.789 12.4933 149.789 13.56V13.86C149.789 13.9933 149.742 14.1 149.649 14.18C149.569 14.26 149.462 14.3 149.329 14.3H142.209C142.209 14.3 142.209 14.3267 142.209 14.38C142.209 14.4333 142.209 14.4733 142.209 14.5C142.235 15.1 142.375 15.6733 142.629 16.22C142.882 16.7533 143.242 17.1933 143.709 17.54C144.175 17.8733 144.729 18.04 145.369 18.04C145.942 18.04 146.415 17.9533 146.789 17.78C147.175 17.6067 147.482 17.42 147.709 17.22C147.935 17.0067 148.082 16.8467 148.149 16.74C148.269 16.5667 148.362 16.4667 148.429 16.44C148.495 16.4 148.602 16.38 148.749 16.38H149.069C149.189 16.38 149.289 16.42 149.369 16.5C149.462 16.5667 149.502 16.66 149.489 16.78C149.475 16.9667 149.369 17.2 149.169 17.48C148.982 17.7467 148.709 18.0133 148.349 18.28C148.002 18.5467 147.575 18.7667 147.069 18.94C146.562 19.1133 145.995 19.2 145.369 19.2ZM142.209 13.18H148.569V13.1C148.569 12.4333 148.442 11.8333 148.189 11.3C147.935 10.7667 147.569 10.3467 147.089 10.04C146.609 9.72 146.035 9.56 145.369 9.56C144.702 9.56 144.129 9.72 143.649 10.04C143.182 10.3467 142.822 10.7667 142.569 11.3C142.329 11.8333 142.209 12.4333 142.209 13.1V13.18ZM152.867 19C152.733 19 152.627 18.96 152.547 18.88C152.467 18.8 152.427 18.6933 152.427 18.56V9.06C152.427 8.92667 152.467 8.82 152.547 8.74C152.627 8.64667 152.733 8.6 152.867 8.6H153.187C153.32 8.6 153.427 8.64667 153.507 8.74C153.6 8.82 153.647 8.92667 153.647 9.06V9.98C153.887 9.51333 154.233 9.16667 154.687 8.94C155.14 8.71333 155.7 8.6 156.367 8.6H157.107C157.24 8.6 157.347 8.64 157.427 8.72C157.507 8.8 157.547 8.90667 157.547 9.04V9.32C157.547 9.45333 157.507 9.56 157.427 9.64C157.347 9.72 157.24 9.76 157.107 9.76H156.247C155.447 9.76 154.813 9.99333 154.347 10.46C153.88 10.9267 153.647 11.56 153.647 12.36V18.56C153.647 18.6933 153.6 18.8 153.507 18.88C153.427 18.96 153.32 19 153.187 19H152.867ZM163.005 19.2C161.712 19.2 160.685 18.78 159.925 17.94C159.165 17.0867 158.732 15.9733 158.625 14.6C158.612 14.4 158.605 14.1333 158.605 13.8C158.605 13.4667 158.612 13.2 158.625 13C158.692 12.0933 158.905 11.2933 159.265 10.6C159.625 9.90667 160.119 9.36667 160.745 8.98C161.385 8.59333 162.139 8.4 163.005 8.4C163.939 8.4 164.732 8.60667 165.385 9.02C166.039 9.43333 166.539 10.0267 166.885 10.8C167.245 11.5733 167.425 12.4933 167.425 13.56V13.86C167.425 13.9933 167.379 14.1 167.285 14.18C167.205 14.26 167.099 14.3 166.965 14.3H159.845C159.845 14.3 159.845 14.3267 159.845 14.38C159.845 14.4333 159.845 14.4733 159.845 14.5C159.872 15.1 160.012 15.6733 160.265 16.22C160.519 16.7533 160.879 17.1933 161.345 17.54C161.812 17.8733 162.365 18.04 163.005 18.04C163.579 18.04 164.052 17.9533 164.425 17.78C164.812 17.6067 165.119 17.42 165.345 17.22C165.572 17.0067 165.719 16.8467 165.785 16.74C165.905 16.5667 165.999 16.4667 166.065 16.44C166.132 16.4 166.239 16.38 166.385 16.38H166.705C166.825 16.38 166.925 16.42 167.005 16.5C167.099 16.5667 167.139 16.66 167.125 16.78C167.112 16.9667 167.005 17.2 166.805 17.48C166.619 17.7467 166.345 18.0133 165.985 18.28C165.639 18.5467 165.212 18.7667 164.705 18.94C164.199 19.1133 163.632 19.2 163.005 19.2ZM159.845 13.18H166.205V13.1C166.205 12.4333 166.079 11.8333 165.825 11.3C165.572 10.7667 165.205 10.3467 164.725 10.04C164.245 9.72 163.672 9.56 163.005 9.56C162.339 9.56 161.765 9.72 161.285 10.04C160.819 10.3467 160.459 10.7667 160.205 11.3C159.965 11.8333 159.845 12.4333 159.845 13.1V13.18ZM173.823 19.2C173.05 19.2 172.39 19.06 171.843 18.78C171.31 18.5 170.877 18.1267 170.543 17.66C170.21 17.1933 169.963 16.6733 169.803 16.1C169.657 15.5267 169.57 14.9467 169.543 14.36C169.53 14.16 169.523 13.9733 169.523 13.8C169.523 13.6267 169.53 13.44 169.543 13.24C169.57 12.6533 169.657 12.0733 169.803 11.5C169.963 10.9267 170.21 10.4067 170.543 9.94C170.877 9.47333 171.31 9.1 171.843 8.82C172.39 8.54 173.05 8.4 173.823 8.4C174.65 8.4 175.33 8.55333 175.863 8.86C176.41 9.16667 176.85 9.54 177.183 9.98V5.24C177.183 5.10667 177.223 5 177.303 4.92C177.383 4.84 177.49 4.8 177.623 4.8H177.963C178.097 4.8 178.203 4.84 178.283 4.92C178.363 5 178.403 5.10667 178.403 5.24V18.56C178.403 18.6933 178.363 18.8 178.283 18.88C178.203 18.96 178.097 19 177.963 19H177.623C177.49 19 177.383 18.96 177.303 18.88C177.223 18.8 177.183 18.6933 177.183 18.56V17.62C176.85 18.0733 176.41 18.4533 175.863 18.76C175.33 19.0533 174.65 19.2 173.823 19.2ZM173.943 18.04C174.703 18.04 175.317 17.86 175.783 17.5C176.25 17.14 176.597 16.6933 176.823 16.16C177.05 15.6133 177.17 15.0667 177.183 14.52C177.197 14.32 177.203 14.06 177.203 13.74C177.203 13.42 177.197 13.16 177.183 12.96C177.17 12.4267 177.043 11.9 176.803 11.38C176.577 10.86 176.23 10.4267 175.763 10.08C175.297 9.73333 174.69 9.56 173.943 9.56C173.17 9.56 172.55 9.73333 172.083 10.08C171.63 10.4267 171.303 10.88 171.103 11.44C170.903 12 170.79 12.6 170.763 13.24C170.75 13.6133 170.75 13.9867 170.763 14.36C170.79 15 170.903 15.6 171.103 16.16C171.303 16.72 171.63 17.1733 172.083 17.52C172.55 17.8667 173.17 18.04 173.943 18.04ZM191.421 19.2C190.595 19.2 189.908 19.0533 189.361 18.76C188.828 18.4533 188.395 18.0733 188.061 17.62V18.56C188.061 18.6933 188.021 18.8 187.941 18.88C187.861 18.96 187.755 19 187.621 19H187.281C187.148 19 187.041 18.96 186.961 18.88C186.881 18.8 186.841 18.6933 186.841 18.56V5.24C186.841 5.10667 186.881 5 186.961 4.92C187.041 4.84 187.148 4.8 187.281 4.8H187.621C187.755 4.8 187.861 4.84 187.941 4.92C188.021 5 188.061 5.10667 188.061 5.24V9.98C188.395 9.54 188.828 9.16667 189.361 8.86C189.908 8.55333 190.595 8.4 191.421 8.4C192.208 8.4 192.868 8.54 193.401 8.82C193.935 9.1 194.368 9.47333 194.701 9.94C195.035 10.4067 195.281 10.9267 195.441 11.5C195.601 12.0733 195.688 12.6533 195.701 13.24C195.715 13.44 195.721 13.6267 195.721 13.8C195.721 13.9733 195.715 14.16 195.701 14.36C195.688 14.9467 195.601 15.5267 195.441 16.1C195.281 16.6733 195.035 17.1933 194.701 17.66C194.368 18.1267 193.935 18.5 193.401 18.78C192.868 19.06 192.208 19.2 191.421 19.2ZM191.301 18.04C192.088 18.04 192.708 17.8667 193.161 17.52C193.615 17.1733 193.941 16.72 194.141 16.16C194.341 15.6 194.455 15 194.481 14.36C194.495 13.9867 194.495 13.6133 194.481 13.24C194.455 12.6 194.341 12 194.141 11.44C193.941 10.88 193.615 10.4267 193.161 10.08C192.708 9.73333 192.088 9.56 191.301 9.56C190.568 9.56 189.961 9.73333 189.481 10.08C189.015 10.4267 188.661 10.86 188.421 11.38C188.195 11.9 188.075 12.4267 188.061 12.96C188.048 13.16 188.041 13.42 188.041 13.74C188.041 14.06 188.048 14.32 188.061 14.52C188.088 15.0667 188.208 15.6133 188.421 16.16C188.648 16.6933 188.995 17.14 189.461 17.5C189.928 17.86 190.541 18.04 191.301 18.04ZM199.812 22.8C199.705 22.8 199.612 22.76 199.532 22.68C199.452 22.6 199.412 22.5067 199.412 22.4C199.412 22.3467 199.418 22.2867 199.432 22.22C199.458 22.1667 199.492 22.0933 199.532 22L201.072 18.4L197.252 9.4C197.172 9.2 197.132 9.06667 197.132 9C197.132 8.89333 197.172 8.8 197.252 8.72C197.332 8.64 197.425 8.6 197.532 8.6H197.952C198.085 8.6 198.185 8.63333 198.252 8.7C198.332 8.75333 198.385 8.82 198.412 8.9L201.772 16.82L205.212 8.9C205.252 8.82 205.305 8.75333 205.372 8.7C205.438 8.63333 205.538 8.6 205.672 8.6H206.072C206.178 8.6 206.272 8.64 206.352 8.72C206.432 8.8 206.472 8.89333 206.472 9C206.472 9.06667 206.432 9.2 206.352 9.4L200.672 22.5C200.632 22.58 200.578 22.6467 200.512 22.7C200.445 22.7667 200.345 22.8 200.212 22.8H199.812ZM208.996 12C208.863 12 208.756 11.96 208.676 11.88C208.596 11.8 208.556 11.6933 208.556 11.56V10.6C208.556 10.4667 208.596 10.36 208.676 10.28C208.756 10.1867 208.863 10.14 208.996 10.14H209.956C210.09 10.14 210.196 10.1867 210.276 10.28C210.37 10.36 210.416 10.4667 210.416 10.6V11.56C210.416 11.6933 210.37 11.8 210.276 11.88C210.196 11.96 210.09 12 209.956 12H208.996ZM208.996 19C208.863 19 208.756 18.96 208.676 18.88C208.596 18.8 208.556 18.6933 208.556 18.56V17.6C208.556 17.4667 208.596 17.36 208.676 17.28C208.756 17.1867 208.863 17.14 208.996 17.14H209.956C210.09 17.14 210.196 17.1867 210.276 17.28C210.37 17.36 210.416 17.4667 210.416 17.6V18.56C210.416 18.6933 210.37 18.8 210.276 18.88C210.196 18.96 210.09 19 209.956 19H208.996Z" fill="#5E58A3"/>
<g clip-path="url(#clip0_345_227)">
<path d="M36.7048 95.8227V90.55C43.1691 87.9419 47.9192 81.9875 48.8127 74.8312H38.8764C37.7865 79.0647 33.955 82.1967 29.3812 82.1967C23.9602 82.1967 19.5656 77.8023 19.5656 72.3809C19.5656 66.9598 23.9602 62.5651 29.3812 62.5651C33.9475 62.5651 37.7742 65.6875 38.8713 69.9104H48.8102C47.9101 62.7632 43.1631 56.818 36.7048 54.2121V48.9395C46.6879 52.055 53.9343 61.3715 53.9343 72.3809C53.9343 83.3904 46.6879 92.7071 36.7048 95.8227ZM26.7771 96.7954V91.793C27.6297 91.9062 28.4977 91.9706 29.3812 91.9706C30.1955 91.9706 30.9962 91.915 31.7843 91.8184V96.8154C30.9933 96.8923 30.1924 96.9339 29.3812 96.9339C28.5014 96.9339 27.633 96.8855 26.7771 96.7954ZM4.82829 72.3809C4.82829 61.4464 11.9782 52.1856 21.8564 49.0076V54.2916C14.7727 57.2415 9.79188 64.2288 9.79188 72.3809C9.79188 80.5334 14.7727 87.5203 21.8564 90.4705V95.7546C11.9782 92.5766 4.82829 83.3157 4.82829 72.3809ZM31.7843 47.9465V52.9434C30.9962 52.8471 30.1955 52.7915 29.3812 52.7915C28.4977 52.7915 27.6297 52.8556 26.7771 52.9691V47.9667C27.633 47.8764 28.5014 47.8279 29.3812 47.8279C30.1924 47.8279 30.9933 47.8698 31.7843 47.9465ZM29.3812 42.9997C13.1544 42.9997 0 56.1542 0 72.3809C0 88.6079 13.1544 101.762 29.3812 101.762C45.6083 101.762 58.7628 88.6079 58.7628 72.3809C58.7628 56.1542 45.6083 42.9997 29.3812 42.9997Z" fill="#4C47A5"/>
<path d="M70.011 72.6035C70.011 70.9436 70.3029 69.3523 70.8872 67.8303C71.4709 66.3086 72.3243 64.9713 73.4467 63.8181C74.5688 62.6655 75.9603 61.7429 77.6205 61.0514C79.2805 60.3594 81.1867 60.0136 83.3388 60.0136C86.2905 60.0136 88.7576 60.629 90.7408 61.8583C92.724 63.0884 94.2066 64.6711 95.1911 66.6084L86.6593 69.1907C85.8291 67.9919 84.7064 67.3922 83.2927 67.3922C82.0939 67.3922 81.0789 67.8463 80.2492 68.7526C79.419 69.6601 79.0037 70.9436 79.0037 72.6035C79.0037 74.2635 79.419 75.5474 80.2492 76.4544C81.0789 77.3617 82.0939 77.8148 83.2927 77.8148C84.7064 77.8148 85.8291 77.2155 86.6593 76.0161L95.1911 78.5986C94.2066 80.5353 92.724 82.1195 90.7408 83.3491C88.7576 84.5787 86.2905 85.1934 83.3388 85.1934C81.1867 85.1934 79.2805 84.8477 77.6205 84.1559C75.9603 83.4645 74.5688 82.5416 73.4467 81.389C72.3243 80.236 71.4709 78.8988 70.8872 77.3765C70.3029 75.8551 70.011 74.2635 70.011 72.6035Z" fill="#4C47A5"/>
<path d="M112.577 67.9456C110.886 67.9456 109.349 68.13 107.965 68.4991C106.582 68.8679 105.551 69.4833 104.876 70.3438V84.7324H96.1135V60.4747H104.138V65.0863C104.998 63.4571 106.067 62.2039 107.343 61.3278C108.618 60.4516 109.994 60.0135 111.47 60.0135C112.054 60.0135 112.423 60.0295 112.577 60.0597V67.9456Z" fill="#4C47A5"/>
<path d="M113.268 87.1766C114.682 87.6994 115.881 87.9608 116.865 87.9608C118.74 87.9608 119.77 86.8841 119.955 84.7326L111.146 60.4748H120.139L124.751 77.3078L128.487 60.4748H136.649L128.44 87.6378C128.072 88.8372 127.548 89.9205 126.872 90.889C126.196 91.8577 125.389 92.6875 124.451 93.3793C123.513 94.071 122.476 94.6014 121.339 94.9702C120.201 95.3395 119.017 95.5237 117.787 95.5237C116.22 95.5237 114.713 95.2313 113.268 94.6478V87.1766Z" fill="#4C47A5"/>
<path d="M150.484 77.815C151.13 77.815 151.721 77.6768 152.26 77.3997C152.797 77.1233 153.258 76.739 153.643 76.2468C154.027 75.7555 154.335 75.1866 154.566 74.5407C154.796 73.8948 154.911 73.2034 154.911 72.4655C154.911 70.9284 154.473 69.6982 153.597 68.7762C152.721 67.8536 151.56 67.3924 150.115 67.3924C148.485 67.3924 147.102 68.2227 145.965 69.8829V74.0795C146.395 75.1561 147.025 76.0473 147.856 76.7544C148.686 77.4622 149.562 77.815 150.484 77.815ZM153.528 85.1935C151.776 85.1935 150.254 84.8478 148.962 84.1561C147.671 83.4647 146.672 82.4575 145.965 81.1355V94.5557H137.202V60.475H144.812V64.1184C145.672 62.7968 146.733 61.7821 147.994 61.0744C149.254 60.3675 150.807 60.0138 152.652 60.0138C154.25 60.0138 155.742 60.3293 157.125 60.9592C158.509 61.5897 159.692 62.4579 160.676 63.5649C161.659 64.6713 162.435 65.9941 163.004 67.5309C163.573 69.0686 163.858 70.7288 163.858 72.5116C163.858 74.3261 163.597 76.0094 163.074 77.5614C162.551 79.1144 161.829 80.4594 160.906 81.5966C159.984 82.7345 158.893 83.6189 157.632 84.2485C156.371 84.8783 155.004 85.1935 153.528 85.1935Z" fill="#4C47A5"/>
<path d="M181.936 83.395C180.706 83.9181 179.391 84.3561 177.993 84.7096C176.594 85.0624 175.218 85.24 173.865 85.24C172.881 85.24 171.943 85.1168 171.052 84.8709C170.16 84.6252 169.384 84.225 168.723 83.672C168.062 83.1186 167.539 82.3966 167.155 81.5042C166.771 80.613 166.579 79.5062 166.579 78.1837V67.0697H163.581V60.4749H166.579V52.8654H175.341V60.4749H180.091V67.0697H175.341V75.0941C175.341 75.8941 175.51 76.4545 175.848 76.7775C176.186 77.1001 176.647 77.2614 177.232 77.2614C177.662 77.2614 178.154 77.1924 178.708 77.0539C179.261 76.9156 179.814 76.7239 180.368 76.4773L181.936 83.395Z" fill="#4C47A5"/>
<path d="M189.959 72.6035C189.959 74.2336 190.359 75.5092 191.158 76.4313C191.958 77.3536 192.987 77.8148 194.249 77.8148C195.509 77.8148 196.538 77.3536 197.338 76.4313C198.137 75.5092 198.537 74.2336 198.537 72.6035C198.537 70.9744 198.137 69.698 197.338 68.776C196.538 67.8534 195.509 67.3922 194.249 67.3922C192.987 67.3922 191.958 67.8534 191.158 68.776C190.359 69.698 189.959 70.9744 189.959 72.6035ZM194.249 85.1934C192.065 85.1934 190.151 84.8477 188.507 84.1559C186.862 83.4645 185.478 82.5416 184.356 81.389C183.234 80.236 182.388 78.8988 181.819 77.3765C181.251 75.8551 180.967 74.2635 180.967 72.6035C180.967 70.9436 181.251 69.3523 181.819 67.8303C182.388 66.3086 183.234 64.9713 184.356 63.8181C185.478 62.6655 186.862 61.7429 188.507 61.0514C190.151 60.3594 192.065 60.0136 194.249 60.0136C196.4 60.0136 198.307 60.3594 199.967 61.0514C201.627 61.7429 203.018 62.6655 204.14 63.8181C205.262 64.9713 206.108 66.3086 206.677 67.8303C207.245 69.3523 207.53 70.9436 207.53 72.6035C207.53 74.2635 207.245 75.8551 206.677 77.3765C206.108 78.8988 205.262 80.236 204.14 81.389C203.018 82.5416 201.627 83.4645 199.967 84.1559C198.307 84.8477 196.4 85.1934 194.249 85.1934Z" fill="#4C47A5"/>
<path d="M221.55 81.689C222.749 81.689 223.832 81.4353 224.801 80.9281C225.77 80.4203 226.6 79.7449 227.291 78.8989C227.983 78.0536 228.514 77.0927 228.882 76.0162C229.252 74.9406 229.436 73.8336 229.436 72.6961C229.436 71.4967 229.221 70.3521 228.79 69.2601C228.359 68.1694 227.776 67.2163 227.038 66.4008C226.3 65.5868 225.431 64.941 224.432 64.4641C223.433 63.9879 222.349 63.7493 221.181 63.7493C220.443 63.7493 219.682 63.8955 218.898 64.1874C218.114 64.4801 217.376 64.8637 216.684 65.3403C215.993 65.8174 215.393 66.386 214.886 67.0467C214.379 67.7082 214.048 68.4071 213.895 69.145V76.0162C214.232 76.8163 214.663 77.5614 215.186 78.2531C215.708 78.9448 216.308 79.5445 216.984 80.0516C217.66 80.5592 218.383 80.9588 219.152 81.2509C219.92 81.5434 220.72 81.689 221.55 81.689ZM222.795 85.1935C220.796 85.1935 219.036 84.7022 217.515 83.718C215.993 82.7345 214.786 81.4895 213.895 79.9829V94.5557H209.836V60.6594H213.433V65.1789C214.386 63.7031 215.624 62.512 217.146 61.6048C218.668 60.6984 220.351 60.2444 222.196 60.2444C223.856 60.2444 225.378 60.5833 226.761 61.2588C228.145 61.9354 229.344 62.8501 230.359 64.003C231.373 65.1559 232.164 66.486 232.733 67.9921C233.302 69.4987 233.586 71.0666 233.586 72.6961C233.586 74.4179 233.325 76.0393 232.802 77.5614C232.279 79.0837 231.542 80.4056 230.589 81.5274C229.635 82.6501 228.497 83.5413 227.176 84.202C225.854 84.8627 224.393 85.1935 222.795 85.1935Z" fill="#4C47A5"/>
<path d="M236.814 51.0669H240.872V78.5063C240.872 79.3986 241.11 80.0979 241.587 80.6049C242.063 81.1124 242.732 81.3659 243.593 81.3659C243.931 81.3659 244.331 81.3126 244.792 81.2043C245.253 81.0969 245.684 80.9666 246.084 80.8124L246.73 84.0867C246.053 84.3637 245.253 84.5942 244.331 84.7784C243.409 84.9628 242.594 85.0552 241.887 85.0552C240.319 85.0552 239.081 84.6097 238.174 83.7178C237.267 82.8266 236.814 81.5816 236.814 79.9827V51.0669Z" fill="#4C47A5"/>
<path d="M255.307 82.15C256.752 82.15 258.097 81.8809 259.342 81.343C260.587 80.8049 261.533 80.0904 262.178 79.1986C262.762 78.6147 263.054 78.0154 263.054 77.3995V73.8488C261.087 73.0809 259.042 72.6959 256.921 72.6959C254.892 72.6959 253.239 73.1268 251.963 73.987C250.687 74.848 250.049 75.9702 250.049 77.3536C250.049 78.0304 250.18 78.6607 250.441 79.2445C250.702 79.8287 251.071 80.3358 251.548 80.7665C252.025 81.1972 252.586 81.5352 253.231 81.7811C253.877 82.0271 254.569 82.15 255.307 82.15ZM254.246 85.1934C253.109 85.1934 252.048 85.0013 251.064 84.6171C250.08 84.2329 249.227 83.703 248.504 83.0261C247.782 82.3501 247.213 81.558 246.798 80.6513C246.383 79.7447 246.175 78.7528 246.175 77.6766C246.175 76.5696 246.421 75.5631 246.914 74.656C247.405 73.7491 248.105 72.9726 249.012 72.3268C249.918 71.6812 250.995 71.1742 252.24 70.8051C253.485 70.4362 254.846 70.2515 256.321 70.2515C257.49 70.2515 258.673 70.3596 259.873 70.5745C261.071 70.7897 262.132 71.0818 263.054 71.4506V69.5136C263.054 67.5464 262.501 66.0016 261.394 64.8789C260.287 63.7571 258.719 63.1956 256.69 63.1956C254.261 63.1956 251.71 64.1339 249.035 66.0087L247.697 63.38C250.802 61.29 253.923 60.2442 257.059 60.2442C260.225 60.2442 262.693 61.0902 264.461 62.7806C266.229 64.4716 267.113 66.855 267.113 69.9286V79.7515C267.113 80.7052 267.543 81.1972 268.404 81.2277V84.7325C267.973 84.7938 267.62 84.8398 267.344 84.8708C267.067 84.901 266.774 84.9169 266.467 84.9169C265.667 84.9169 265.029 84.679 264.554 84.2018C264.076 83.7259 263.792 83.1496 263.7 82.4729L263.608 80.7665C262.531 82.2118 261.171 83.3105 259.527 84.0636C257.881 84.8166 256.121 85.1934 254.246 85.1934Z" fill="#4C47A5"/>
<path d="M269.879 82.104L285.282 63.6108H270.294V60.6591H289.617V63.2878L274.306 81.781H289.663V84.7324H269.879V82.104Z" fill="#4C47A5"/>
<path d="M299.9 82.15C301.346 82.15 302.691 81.8809 303.936 81.343C305.182 80.8049 306.128 80.0904 306.772 79.1986C307.357 78.6147 307.65 78.0154 307.65 77.3995V73.8488C305.681 73.0809 303.637 72.6959 301.517 72.6959C299.487 72.6959 297.834 73.1268 296.557 73.987C295.28 74.848 294.645 75.9702 294.645 77.3536C294.645 78.0304 294.773 78.6607 295.035 79.2445C295.297 79.8287 295.665 80.3358 296.144 80.7665C296.62 81.1972 297.181 81.5352 297.826 81.7811C298.473 82.0271 299.162 82.15 299.9 82.15ZM298.84 85.1934C297.703 85.1934 296.643 85.0013 295.659 84.6171C294.673 84.2329 293.821 83.703 293.1 83.0261C292.376 82.3501 291.809 81.558 291.393 80.6513C290.977 79.7447 290.771 78.7528 290.771 77.6766C290.771 76.5696 291.016 75.5631 291.507 74.656C292 73.7491 292.698 72.9726 293.607 72.3268C294.514 71.6812 295.588 71.1742 296.834 70.8051C298.079 70.4362 299.442 70.2515 300.915 70.2515C302.084 70.2515 303.267 70.3596 304.466 70.5745C305.666 70.7897 306.727 71.0818 307.65 71.4506V69.5136C307.65 67.5464 307.094 66.0016 305.989 64.8789C304.883 63.7571 303.315 63.1956 301.286 63.1956C298.854 63.1956 296.304 64.1339 293.63 66.0087L292.293 63.38C295.397 61.29 298.518 60.2442 301.653 60.2442C304.82 60.2442 307.288 61.0902 309.055 62.7806C310.822 64.4716 311.706 66.855 311.706 69.9286V79.7515C311.706 80.7052 312.136 81.1972 313 81.2277V84.7325C312.567 84.7938 312.213 84.8398 311.937 84.8708C311.66 84.901 311.37 84.9169 311.062 84.9169C310.261 84.9169 309.625 84.679 309.149 84.2018C308.671 83.7259 308.388 83.1496 308.294 82.4729L308.203 80.7665C307.126 82.2118 305.766 83.3105 304.122 84.0636C302.477 84.8166 300.716 85.1934 298.84 85.1934Z" fill="#4C47A5"/>
</g>
<defs>
<clipPath id="clip0_345_227">
<rect width="313" height="58.7625" fill="white" transform="translate(0 43)"/>
</clipPath>
</defs>
</svg>
